/* XPM */
static char *_323dcd1fa7841b7d8750a25f86748a6msyXJolVcncgEb7n[] = {
/* columns rows colors chars-per-pixel */
"60 60 206 2 ",
"   c None",
".  c #3E2622",
"X  c #382B2A",
"o  c #3F2F32",
"O  c #2F3235",
"+  c #333234",
"@  c #33363A",
"#  c #3C353D",
"$  c #34393D",
"%  c #3B3B3D",
"&  c #3B3334",
"*  c #46130A",
"=  c #4B160C",
"-  c #4A180F",
";  c #53150C",
":  c #56190F",
">  c #5C190E",
",  c #59160C",
"<  c #461D14",
"1  c #4B1C14",
"2  c #451F18",
"3  c #531C13",
"4  c #5B1B11",
"5  c #621A0F",
"6  c #641C12",
"7  c #6B1D12",
"8  c #741E13",
"9  c #7A1F13",
"0  c #44221B",
"q  c #4D2119",
"w  c #52231B",
"e  c #5D231A",
"r  c #562017",
"t  c #622016",
"y  c #6D2116",
"u  c #65241B",
"i  c #7D2115",
"p  c #7D2519",
"a  c #762116",
"s  c #442926",
"d  c #592D25",
"f  c #552B24",
"g  c #5E342C",
"h  c #54352E",
"j  c #412D30",
"k  c #433837",
"l  c #523B37",
"z  c #632C24",
"x  c #63352D",
"c  c #643931",
"v  c #44403F",
"b  c #68423B",
"n  c #323B43",
"m  c #3C3D42",
"M  c #373C49",
"N  c #353D4A",
"B  c #32414E",
"V  c #3F4143",
"C  c #314554",
"Z  c #314759",
"A  c #364559",
"S  c #2F4658",
"D  c #2F4E65",
"F  c #2E4F69",
"G  c #324B64",
"H  c #374C69",
"J  c #2F506C",
"K  c #2D597D",
"L  c #2D5575",
"P  c #345171",
"I  c #444343",
"U  c #4D4B4B",
"Y  c #494848",
"T  c #514C4B",
"R  c #56514F",
"E  c #4D4F51",
"W  c #535353",
"Q  c #595553",
"!  c #57595B",
"~  c #5C5C5D",
"^  c #575858",
"/  c #4F5153",
"(  c #694841",
")  c #714A43",
"_  c #75524C",
"`  c #78524C",
"'  c #625E5B",
"]  c #625B57",
"[  c #7B5B54",
"{  c #775A53",
"}  c #6F574F",
"|  c #69605C",
" . c #7F625A",
".. c #676564",
"X. c #776C67",
"o. c #7A716C",
"O. c #7C7B7B",
"+. c #777574",
"@. c #832216",
"#. c #8A2317",
"$. c #862518",
"%. c #942619",
"&. c #9A2719",
"*. c #9D291A",
"=. c #942416",
"-. c #A42A1B",
";. c #AB2C1C",
":. c #B32D1D",
">. c #BB2F1F",
",. c #BE301F",
"<. c #B63020",
"1. c #C0301F",
"2. c #C43120",
"3. c #83645D",
"4. c #866B62",
"5. c #886A65",
"6. c #827E7C",
"7. c #897C74",
"8. c #947A75",
"9. c #957C78",
"0. c #8C736E",
"q. c #96857D",
"w. c #88817C",
"e. c #2C5D85",
"r. c #325B85",
"t. c #325D89",
"y. c #2A618C",
"u. c #2A6695",
"i. c #2C6799",
"p. c #286EA4",
"a. c #296FA8",
"s. c #2B73AD",
"d. c #2771AA",
"f. c #277BBC",
"g. c #297BBC",
"h. c #2876B3",
"j. c #277EC2",
"k. c #2A85CC",
"l. c #2982C7",
"z. c #2B8BD4",
"x. c #2D8DD8",
"c. c #318CD4",
"v. c #2D91DE",
"b. c #3292DD",
"n. c #3395E1",
"m. c #3B9AE4",
"M. c #379AE6",
"N. c #2F93E0",
"B. c #7DB2DC",
"V. c #69AADF",
"C. c #439FE6",
"Z. c #4CA2E6",
"A. c #4AA4EA",
"S. c #58A8E6",
"D. c #64ACE5",
"F. c #77B4E3",
"G. c #69B0E7",
"H. c #868484",
"J. c #8D8B8A",
"K. c #8C8684",
"L. c #9D8E84",
"P. c #928C8A",
"I. c #9F9086",
"U. c #97928F",
"Y. c #989696",
"T. c #A3948B",
"R. c #AC9B94",
"E. c #A19E9D",
"W. c #AB9895",
"Q. c #AC9894",
"!. c #B2A39E",
"~. c #AAA19B",
"^. c #A9A8A7",
"/. c #B7ADA9",
"(. c #BCB2AB",
"). c #B4B2B1",
"_. c #BEBCBB",
"`. c #BCB8B7",
"'. c #C5BEBA",
"]. c #C6BAB7",
"[. c #C9C1BF",
"{. c #8CB8DB",
"}. c #81B9E4",
"|. c #C0BFC0",
" X c #ADC5D7",
".X c #C5C3C3",
"XX c #CDC6C3",
"oX c #C9C8C8",
"OX c #D3CBC9",
"+X c #D8D1CE",
"@X c #DBD5D3",
"#X c #DCDBDA",
"$X c #D7D5D4",
"%X c #E2DCDA",
"&X c #E0E0DF",
"*X c #E5E2E2",
"=X c #EDECEB",
"-X c #EAE6E5",
";X c #F0EEED",
":X c #F2F0EF",
">X c #F4F3F3",
",X c #FEFEFE",
"<X c #FFFFFF",
"1X c #FDFDFD",
"2X c #FEFEFE",
"3X c #F8F7F7",
/* pixels */
"                                                                                                                        ",
"                                                                                                                        ",
"                                                                                                                        ",
"                                                                    D.b.g.k.Z.                                          ",
"                            N.a.g.M.                           XS.  p.D B B f.S.                                        ",
"                          v.K n n L j.A.                    F.n.p.S @ @ % $ B g.D.                                      ",
"                        M.K n V m @ n y.v.F.              A.f.F @ @ ! E.^.R @ C k.V.                                    ",
"                      S.p.$ V ^.~.Q $ $ F k.G.          M.u.N + E E.#X3X3XT.Y @ D x.                                    ",
"                      x.S @ Y.1X3X[.X.% @ Z l.S.      N.K $ $ O.$XoX..w.3X$X7.I @ K M.                                  ",
"                    S.u.@ ~ =XoXY.*X[.7.Y @ C f.z.k.l.K @ V ^.>X).Q O.Q Y.>X/.o.% $ a.                                  ",
"                    n.Z @ ^.=X' R ..[.(.7.v O n n n n @ V ).1X.X% R H.O.U $XOXI.| @ C z.                                ",
"                    h.n E *X^.v o.v T _.(.T...~ ~ ~ ~ ~ ).2X2XoXY.K.X.Q + w.-XT.q.Y @ y.A.                              ",
"                  C.K + H.>X..T 6.E.).#X2X3X>X>X>X>X>X>X3X2X2X2X2X2X2X=X`.H.-X~.I.o.$ B k.                              ",
"                  b.C $  X:X_.=X2X2X2X2X2X2X2X2X2X2X2X2X2X2X2X2X2X2X2X2X2X3X>Xq.X.w.T @ y.                              ",
"                {.f.n V T.=X2X2X2X2X2X2X2X2X2X2X2X2X2X2X2X2X2X2X2X2X2X2X1X2X1X[.Y Y T @ S b.                            ",
"                F.p.@ Y [.2X2X2X2X2X2X2X2X2X2X2X2X2X2X2X2X2X2X2X2X2X2X2X2X2X1X;Xq.v + @ V g.                            ",
"                S.y.@ ^.2X2X2X2X2X2X2X2X2X2X2X2X2X2X2X2X2X2X2X2X2X2X2X2X2X2X2X1X/.7.k + @ u.                            ",
"                N.S ! -X2X2X2X2X2X2X2X2X2X2X2X2X2X2X2X2X2X2X2X2X2X2X2X2X2X2X2X2X[.T.o.% @ K                             ",
"              D.d.@ U.1X2X2X2X2X2X2X2X2X2X2X2X2X2X2X2X2X2X2X2X2X2X2X2X2X2X2X2X2X%XI.I.] @ F A.                          ",
"              m.J m oX2X2X2X2X2X2X2X2X2X2X2X2X2X2X2X2X2X2X2X2X2X2X2X2X2X2X2X2X2X;XR.I.w.% C x.                          ",
"              z.N ! =X1X2X2X2X2X2X2X2X2X2X2X2X2X2X2X2X2X2X2X2X2X2X2X2X2X2X2X1X1X3X!.q.T.R $ h.                          ",
"            }.a.O +.1X1X2X2X2X2X2X2X2X2X2X2X2X2X2X2X2X2X2X2X2X2X2X2X2X2X2X2X1X1X1X[.T.q.| & t.                          ",
"            D.r.2 } OX3X2X2X2X1X2X2X2X2X2X2X2X2X2X2X2X2X2X2X2X2X2X2X2X2X2X2X1X1X;X!.{ b w < A                           ",
"            Z.H < < f 4./.*X1X2X2X2X2X2X2X2X2X2X2X2X2X2X2X2X2X2X2X2X2X3X*XXXQ.5.b q = = 3 0 V b.                        ",
"            C.M 2 p 7 = = x 3.W.'.%X;X>X1X2X2X2X2X2X2X1X3X:X-X+X].Q.8._ d 3 = = 4 8 7 8 8 1 k b.                        ",
"            b.m w -.1.-.@.6 ; = 3 d c _ 3.0.8.8.9.8.5.3.` b x w 1 = = , 7 9 %.;.>.:.@.@.8 1 j b.                        ",
"            c.j w ;.2.2.2.,.;.&.@.8 5 , ; = ; = = ; ; ; , 5 7 8 @.&.-.:.,.2.2.2.2.>.$.9 p 1 j c.                        ",
"            j.s w ;.2.,.<.1.2.2.2.2.>.>.:.;.-.-.-.-.;.:.:.>.2.2.2.2.2.2.2.2.2.2.2.>.$.@.8 1 s k.                        ",
"            h.f 3 :.2.;.4 7 =.:.2.2.2.2.2.2.2.2.2.2.2.2.2.2.>.>.2.2.2.2.2.2.2.2.2.>.@.@.8 1 2 H b.                      ",
"            i.2 4 <.2.-.x L._ u 9 -.,.2.2.2.2.2.2.2.1.:.&.9 6 6 :.2.2.2.2.2.2.2.2.>.@.8 6 1 1 2 P A.                    ",
"            r.< 6 >.2.;.z +X1X].` = a 1.2.2.2.2.:.#.y z ( 8.9.4 :.2.2.2.2.2.2.2.2.-.6 ; = 0 . f s a.F.                  ",
"            J 0 = #.1.2.@.3.'.8.x 7 -.2.2.2.1.1.#.= c ].>X3X0.9 2.2.2.2.2.2.2.-.@.: = d } & + t 1 H Z.                  ",
"            # & g = 8 ;.:.7 4 9 -.2.1.:.-.;.1.2.>.*.y b ^.9.7 :.2.2.2.2.>.*.8 ; 1 g { q.q.k 1 a r # b.                  ",
"          i.2 l '.5.1 ; @.-.;.;.&.i 5 , = ; 7 =.:.1.1.&.6 6 ;.2.2.2.;.#.6 = w [ (./.L.L.( e =.$.r o c.                  ",
"        C.M 2 1 T.>X!.( 1 , 4 ; = 1 c [ 9.3.d * , a -.>.>.>.2.:.=.8 ; - x 8.OX3X2X(.4.g 8 ;.,.p q M m.                  ",
"        s.s 1 a 6 !.).6.L.[ ( 0.!.OX-X3X2X3X@XQ.` w = 4 @.#.8 , = d [ !.*X2X2X2X%X` 4 %.1.:.a 1 q t.A.                  ",
"      m.M 1 1 %.&.d 4.6./.3X>X;X_.E.K.O.+.+.+.6.+.Y . . q 1 g ` 0.K.Y.1X2X2X:XR.c 8 :.:.#.> > 4 1 %                     ",
"      u.s 3 6 4 #.*.4 K.-X1X1X_.# ] O.J.P.U.P.H.O.X.~ ..].'.%X@XJ.+.U.1X>X(.) 7 -.>.%.6 : 8 &.-.3 0 i.                  ",
"    n.n < $.;.9 , 9 &.6 9.:X1X#XU H.`.oX$X*X>X1X@XU.T ).2X2X2X#XJ.+.U.].` 6 =.:.=.7 4 6 #.;.2.2.a 0 H M.                ",
"    f.o 2 @.2.<.#.> 7 %.7 5.*X1XE.V J.$X-X>X3X>X_.^ 6.>X2X2X2X2X-X/.` t #.-.#.6 : 6 i *.,.2.,.%.r 0 B u.j.              ",
"    i.@ l 1 i ,.>.=.6 4 #.8 ) XX1X).' W ..O.+.' T J.;X2X2X2X*XR.) 6 @.*.#.4 : 7 #.&.#.>.2.;.a 1 h & + @ n D d.          ",
"    y.$ w. .q 7 @.-.;.8 : 9 9 z Q.3X:X.XK.+.o.E.#X2X2X>XXX8.c 6 #.%.8 4 > 7 #.-.:.,.8 $.9 ; w 3.| O v T V + n y.        ",
"    u.@ Y.%Xq.c - *.2.>.$.: 7 @.6 4.%X2X=XXX+X2X3X@XQ.` u 8 #.i 6 > 5 9 %.:.,.2.2.1.7 - d  ./.[.| X Q q.w.| % n a.      ",
"    h.n W .XOXo.1 %.2.2.;.7 ; 4 9 7 x R.:X3X@XQ.[ z 7 9 i 7 4 ; 6 %.;.,.2.1.2.2.2.:.u X ] [.&X~.& + X.I.I.q.| $ Z b.    ",
"    n.J @ m E o < $.2.2.#.&.9 9 , 6 8 6 ` ` z 7 a 9 8 4 4 8 #.7 7 ;.2.2.2.2.1.2.2.*.y X + v I + + R q.I.I.R.oX! $ h.    ",
"      z.r.G N # < 7 2.2.-.@.%.,.-.7 : 7 8 9 9 7 4 4 8 =.;.,.>.9 -.9 ,.2.2.2.2.2.:.@.@.y . X + k | q.T.I.T.@X1XO.@ y.S.  ",
"        Z.n.v.s.s 3 -.2.2.>.2.2.2.:.#.4 > > 4 8 %.;.,.2.2.2.,.#.9 #.2.2.2.2.2.1.%.a @.a ; - } q.I.L.I.I.XX2X2XJ.@ e.S.  ",
"              M.N 2 f *.<.2.2.2.2.2.2.;.#.&.:.2.2.2.2.2.2.2.2.,.:.2.2.2.2.2.1.*.p 9 7 : = d q.T.L.I.I.R.=X2X1XO.O y.G.  ",
"                j.# 0 q e y a i i @.@.i p i p p p p p p p @.p i @.@.@.9 @.@.8 4 : , = = q 4.I.L.I.L.q.`.1X1X&XW $ h.F.  ",
"                  k.P j 0 2 1 1 * * * * = 1 < < < < 0 1 < 1 - * * * * * = - = - < * 1 g 4.I.L.I.L.I.I.+X1X3XH.+ Z x.    ",
"                      c.g.r.X s [ 4.4.3.l s M t.r.t.t.t.A . s  .5.4.4.4.b . . s . ( 4.L.I.L.I.L.L.I.~.;X=XU.% n h.S.    ",
"                        B.v.B % oX2X3X*XW $ h.A.V.V.F.S.l.n I OX1X1X3X3XO.O S n @ V | 7.L.L.I.I.I.T.[.)...@ n i.C.      ",
"                          b.Z % |.>X=X).$ Z b. X      {.l.n Y $X:X:X=X&X! @ h.j.F @ @ % T Q ' | | ..W $ @ B p.M.        ",
"                            C n / ! ! Y @ y.S.        F.d.$ M ! ! ! ! ! n N z.Z.b.a.F n $ @ @ + @ + $ B e.l.Z.          ",
"                            G n n n n n B j.}.        G.d.N n n n n $ n n L C.      M.l.a.y.e.e.e.u.h.z.Z.B.            ",
"                              f.f.f.f.f.l.              M.l.j.f.f.f.f.f.j.x.B.                                          ",
"                                                                                                                        ",
"                                                                                                                        ",
"                                                                                                                        ",
"                                                                                                                        "
};
