/* XPM */
static char *_d3709bba3284edfbc9c3b7fdf833a30NT6lMVEHlPfMMwlm[] = {
/* columns rows colors chars-per-pixel */
"60 60 209 2 ",
"   c None",
".  c #3F3B3B",
"X  c #5B1D0B",
"o  c #631D0A",
"O  c #681F0D",
"+  c #5C2213",
"@  c #5B2A1D",
"#  c #59281B",
"$  c #69200D",
"%  c #632414",
"&  c #6C2412",
"*  c #612718",
"=  c #632B1D",
"-  c #6C2C1C",
";  c #742613",
":  c #7A2714",
">  c #7D2916",
",  c #742D1D",
"<  c #7B2B1A",
"1  c #762817",
"2  c #582C22",
"3  c #54322B",
"4  c #57312A",
"5  c #443F3F",
"6  c #4B3734",
"7  c #543937",
"8  c #4F312B",
"9  c #673529",
"0  c #753426",
"q  c #6C3D32",
"w  c #713729",
"e  c #73453B",
"r  c #78473C",
"t  c #68453C",
"y  c #54423F",
"u  c #4F3F43",
"i  c #3E4449",
"p  c #3E4B54",
"a  c #3E5565",
"s  c #3E596D",
"d  c #3F5768",
"f  c #3E5E73",
"g  c #3D617A",
"h  c #424344",
"j  c #42464A",
"k  c #44494D",
"l  c #4C4C4C",
"z  c #4D454A",
"x  c #56514F",
"c  c #424C53",
"v  c #4C4D52",
"b  c #474C58",
"n  c #495157",
"m  c #535353",
"M  c #5A5858",
"N  c #554A4D",
"B  c #7B534A",
"V  c #615E5C",
"C  c #655856",
"Z  c #705048",
"A  c #64605E",
"S  c #415563",
"D  c #4B5265",
"F  c #465D78",
"G  c #585C61",
"H  c #5F6162",
"J  c #636364",
"K  c #6A6663",
"L  c #6B6B6C",
"P  c #676869",
"I  c #746D6A",
"U  c #78726F",
"Y  c #6B6E71",
"T  c #737272",
"R  c #7B7775",
"E  c #832B16",
"W  c #8C2D16",
"Q  c #832E1C",
"!  c #8B2D19",
"~  c #922F1A",
"^  c #912E16",
"/  c #8A311D",
"(  c #94311C",
")  c #9C331D",
"_  c #9A3017",
"`  c #A5361E",
"'  c #AB381F",
"]  c #B0391F",
"[  c #863322",
"{  c #933622",
"}  c #AB3921",
"|  c #A73720",
" . c #B33C23",
".. c #BA3E24",
"X. c #BD4026",
"o. c #C34126",
"O. c #CC4529",
"+. c #C74328",
"@. c #D1462A",
"#. c #845B53",
"$. c #89655D",
"%. c #806157",
"&. c #896A63",
"*. c #92756C",
"=. c #967A73",
"-. c #997C74",
";. c #957770",
":. c #8D736B",
">. c #8B827C",
",. c #99827B",
"<. c #A0857F",
"1. c #3A6A89",
"2. c #3A6E92",
"3. c #36749C",
"4. c #387196",
"5. c #367AA6",
"6. c #41709A",
"7. c #42698C",
"8. c #2E87BC",
"9. c #3182B4",
"0. c #3487BB",
"q. c #2F8FC8",
"w. c #2E8DC4",
"e. c #338CC2",
"r. c #308FC8",
"t. c #2E91CB",
"y. c #3292CC",
"u. c #2E98D5",
"i. c #339CDB",
"p. c #3A9DDB",
"a. c #3298D4",
"s. c #35A2E2",
"d. c #3BA5E4",
"f. c #3CA7E8",
"g. c #3BA0DE",
"h. c #43ABEA",
"j. c #4BADEA",
"k. c #43A6E4",
"l. c #5CB3EB",
"z. c #54B1EB",
"x. c #50B2EF",
"c. c #6BB9EC",
"v. c #65B7EB",
"b. c #72BBEB",
"n. c #79BBE8",
"m. c #8D8C8C",
"M. c #898584",
"N. c #968E89",
"B. c #98918D",
"V. c #9C9B9A",
"C. c #989493",
"Z. c #A58C88",
"A. c #A7948D",
"S. c #AC9E95",
"D. c #A49B96",
"F. c #B19F9B",
"G. c #AEA097",
"H. c #AFA198",
"J. c #A6A19F",
"K. c #B1A39A",
"L. c #AAA5A3",
"P. c #A8A7A7",
"I. c #B0AEAD",
"U. c #BCACA8",
"Y. c #B8A9A3",
"T. c #BAB2AC",
"R. c #BAB9B8",
"E. c #C0B2AE",
"W. c #C4BFBB",
"Q. c #C6BAB6",
"!. c #C0AFAB",
"~. c #C9C1BE",
"^. c #84BEE5",
"/. c #9DC3DF",
"(. c #B7CBD9",
"). c #AAC8DC",
"_. c #8AC2E8",
"`. c #9BC5E4",
"'. c #96C5E6",
"]. c #A7CBE5",
"[. c #BBD2E2",
"{. c #B5D3E7",
"}. c #CCCBCB",
"|. c #C9C6C5",
" X c #D3CAC7",
".X c #D7D0CC",
"XX c #D8D1CF",
"oX c #CBD5DD",
"OX c #D3D1D1",
"+X c #DCD4D2",
"@X c #DCDADA",
"#X c #C1CFD9",
"$X c #E2DDDC",
"%X c #E0DAD7",
"&X c #E4E0DF",
"*X c #C5D7E3",
"=X c #D7DEE3",
"-X c #DAE1E6",
";X c #E5E3E3",
":X c #ECE8E7",
">X c #EDECEB",
",X c #EAE7E5",
"<X c #F0EEED",
"1X c #F4F4F3",
"2X c #FEFEFE",
"3X c #FDFDFD",
"4X c #FEFEFE",
"5X c #F9F7F7",
"6X c #F1F0EF",
/* pixels */
"                                                                                                                        ",
"                                                                                                                        ",
"                                                                                                                        ",
"                                                                                  ,X[.'._.{.                            ",
"                                        c.w.d c f 9.s.v.[.                      -X^.f.r.9.f.`.                          ",
"                                      c.r.a k n j p s 5.f._.oX                ].z.t.1.b k 2.s.).                        ",
"                                    ^.u.S k K I.I.P k p g t.l.[.            _.d.5.c j v n k 4.h.                        ",
"                                  ].s.f j M Y.5X5X;XI.H i b 5.h.].        n.i.g j k P T.R.m p 9.c.                      ",
"                                (.h.2.j M B.$X5XC.R OX&Xm.c k 2.s._.    b.t.S k m >. X2X3XP.j d s.{.                    ",
"                                c.9.k l >.T.5XI.P m.P W.1XI.m i 1.u.i.i.t.s h M N. X:XP.OX6XT i 5.c.                    ",
"                              ].i.d j U H.+X@XM N.C.K l .X3X(.x i p p p p i M N.Q.}.R K T 6XR.j s d.                    ",
"                              z.3.j M S.K.<XB.h P >.V.L..X3X3XR.T T T T T T H.W.|.V x M.m I.>XH c r.^.                  ",
"                            `.a.a k >.K.T.:XV.|.>X3X2X2X2X2X2X3X5X1X1X1X5X5X5X5X;X~.I.m.J R 5XC.i 1.z.                  ",
"                            v.5.h V A.>.V.5X5X2X2X2X2X3X2X2X2X2X2X2X2X2X2X2X2X2X2X2X2X2X>X}.1X}.v a g.[.                ",
"                          *Xd.S i V M C }.2X2X2X2X2X2X2X2X2X2X2X2X2X2X2X2X2X2X2X2X2X2X2X2X2X>XL.m c q.`.                ",
"                          `.r.c i h x G.>X2X2X2X2X2X2X3X2X2X3X2X2X3X2X3X2X2X2X2X2X2X2X2X2X2X2X}.M p 9.^.                ",
"                          b.5.j i m N.~.3X3X2X2X2X2X2X3X2X3X2X2X2X2X2X2X2X3X2X3X2X3X2X2X2X2X3X2XI.k 3.v.                ",
"                          z.2.j l >.S..X2X2X3X2X2X3X2X2X2X2X2X2X3X2X3X2X2X2X2X2X2X2X3X2X2X2X2X2X6XP f d.*X              ",
"                          j.g i I S.K.&X2X2X2X2X2X2X2X2X2X2X3X2X2X2X2X2X2X2X2X2X2X2X2X2X2X2X2X2X2XP.p 9.n.              ",
"                        (.s.a v A.H.Y.1X2X2X2X3X2X3X2X3X2X3X2X2X2X3X2X3X2X3X2X3X2X3X2X2X2X2X2X2X2X}.v g j.              ",
"                        ^.e.k J S.S.~.5X3X3X3X2X2X2X2X2X3X2X2X3X2X2X3X2X3X2X3X2X3X2X2X2X2X2X2X2X2X>XL p a.].            ",
"                        b.2.u :.G.G.~.3X3X3X3X3X2X2X2X2X2X2X2X2X2X2X2X2X2X2X2X2X2X2X2X2X2X3X2X2X2X3Xm.j 0.'.            ",
"                        l.F 2 9 r :.T.6X3X3X3X3X2X2X2X2X2X2X2X3X2X3X2X2X2X2X2X2X3X2X2X2X2X2X2X2X5X+X&.2 6.b.            ",
"                        j.b @ * % X - B ,.!..X:X5X2X2X2X2X2X2X2X2X2X3X2X2X3X2X2X2X2X2X2X2X3X:XQ.=.9 # 2 F v.            ",
"                        k.z = ! ! E E ; o X = e $.Z.U. X%X:X1X5X2X2X2X2X2X2X2X2X5X6X&X XY.;.e + o E / 2 D j.            ",
"                        g.u 2 ! ~ _ +.+...| ! > O X X * 9 e #.$.;.-.Z.Z.A.Z.<.;.&.B q * X o : )  .O...= z k.            ",
"                        g.u * ! ! ) +.@.@.@.@.O.o...' _ W E ; O o o o o o o o o $ : E ) | ..O.@.@.@...9 u g.(.          ",
"                        p.7 * ! ~ ) +.@.@.@.@.@.@.@.@.@.O.O.O.o.o.o. . . .......+.O.@.@.@.@.+.o.@.@...= 4 y.).          ",
"                      g.F 2 % ! ~ ) +.@.@.@.@.@.@.@.@.O.o.+.@.@.@.@.@.@.@.@.@.@.@.O.@.@.+.` E ; ..@...- 4 e.].          ",
"                    x.7.2 # + ; ! ~ +.@.@.@.@.O.O.@.@.o.: > ^ ' o.O.@.@.@.@.@.@.@.O. .^ 0 #.F.r  .@.+.- 2 5._.          ",
"                  '.e.3 9 6 2 + o > ..@.@.@.@.O.@.@.@.o., A.Z.#.0 ! ` ..@.@.@.@.O.! % #. X5X%X0 o.@.O., @ 2.b.          ",
"                  l.F = < 5 z &.q + $ ~ ..O.@.@.@.@.@.@.W ,.5X1X|.B X ) O.@.@.@.@. .W r Z..X=.^ @.O.{ % 2 7.x.          ",
"                  k.z - / # N A.A.:.e + $ E  .+.@.@.@.@.o.< A.E.#.Q } O.@.+... .+.O.O...^ , < +...! X q z k p.).        ",
"                  p.u - { | , #.A.H.~.Q.&.9 X ; ) ..@.@.@...> 1 ` O.@.o.` E O X O : ( } .... .( o = -.}.Z @ 5.n.        ",
"                  h.n @ { O.o.! e -.Q.3X5X+XZ.r + $ E ' o.@.+.+.+.} W O X q ;.A.&.r = X o : $ # #.U.5XK.2 # D j.        ",
"                  l.6.2 + ! o.O.' , &.$X2X2X2X:XE.&.w + O E ` ) 1 % = $.Y.$X5X3X3X<X+X!.<.#.&.S.C.W.U.0 ! = 4 0._.      ",
"                (.k.v # - ; & ) +...! B U.5X2X2X2XP.C.N.&.q % # 8 6 C M.m.m.M.M.N.V.I.|.<X5X5XW.C.=.w ' ` = @ D k.*X    ",
"                n.5.2 -  .} W & : | +.] Q #.Q.5X2XL.m.D.$X,X X XR L M.C.V.D.J.P.V.m.T l }.2X2X>XA., ' ) & > = 4 5.b.    ",
"              `.j.7.# / @.@...) > & > ` ..` < &.~.L.m.D.&X2X2X2X|.A L.@X3X5X,X@XOX|.C.V &X2X1XA., ' ~ % ~ X.{ @ v d.    ",
"            d.r.5.b 3 % ` @.@.O. .! > & 1 ` .._ , &.E.<X3X2X3X2X5Xm.K }.1X5X1X6X@XJ.x I.2X:X=.> ` > & ) +.O./ # u w.^.  ",
"      {.j.8.g c u i h t * W X.O.O.) } ~ E $ ; ~ } _ < %.U.:X2X3X2X6XD.J U m.m.R J T |.3XOX#.E ` ; : ` +.+.( = Z c 5.b.  ",
"    [.j.3.c h m A k . =.*.9 $ W { ! @.+. .{ ! $ & ! | _ > r Z..X5X2X2X&XI.M.m.D.}.1X5XU.q ^ ~ & E ....( : = *.V.k 5.c.  ",
"    c.9.c c I B.G.K . I .XQ.*.t + : O.@.@.@.o.| ( > & > ( ) W 0 $.Y.&X3X5X$XXX<X2X$X-.< ~ > & ) +.@. .+ r A.&XP.j 5.n.  ",
"    d.d l R G.K.G.>.5 z I.;X XI 6 0 o.@.@.@.@.@.+...` > % & > ^ W E 0 :.U.%X5X5XU.r E W ; % E ..@.@.` * ,.@X}.P c e.'.  ",
"    e.k P OXY.H.S.S.K 5 5 M x . 7 [ | O.@.O.@.@.@.@...E > ) ! & ; Q W W > 0 &.#.1 ! > & ~ W } ` @.@.{ # y M n j g d.    ",
"  b.5.i m.3X&XK.S.G.S.U x 5 6 7 0 ~ ) o.@.@.@.O.O.O.(  .( +.O.X.| E ; & > W ~ W Q & E } +.| ~ } @.+.Q # z a F 4.i.^.    ",
"  v.4.i V.2X3X.XG.G.G.H.D.$.+ % ! ~ ~ | O.@.@.@.@.@.) ( ) @.@.@.@.O...' ! ; ; ; ; ) +.@.@.O.O.@.@.X.= 4 0.s.d.l.`.      ",
"  b.3.i N.3X3X1XY.S.G.G.G.Z.e X & ! ! ~  .O.@.@.@.@.@...O.@.@.@.@.@.@.@.@.o.` { ..O.@.@.@.@.O.+.} 0 @ D j.].oX          ",
"  '.8.c J ,X2X3X~.G.G.G.G.G.,.* X % & & ; / ( ( ( ( ( ( ( ( ( { { { { { { / ( ( ~ ~ ~ ~ / / Q , @ 2 z y.'.              ",
"    s.f j C.5X2X@XG.G.G.G.G.G.,.e + + o + X + X X X X X X X + @ # # # # # # + + X X X X X # # 4 y 7.i.n.                ",
"    b.8.c k P.6X1XT.G.G.G.G.G.G.S.,.B 6 8 8 8 B =.-.=.=.:.7 3 D 6.6.6.7.6.D 8 Z -.-.=.:.7 6 6.e.p.l.].                  ",
"      x.5.k p R ~.}.K.G.G.G.G.S.N.U m i p a i C.5X3X3X3X@Xv c a.v.n.n.n.l.e.p H ,X3X3XOXm a s._.[.-X                    ",
"      (.j.9.S j k J R R U U L A v j c g u.8.i L ,X1X1X1X@XM p t.].        f.s k R.5X1X|.v s k.*X                        ",
"        (.l.u.2.d k i h j j h j c g 9.f.v.i.a v P Y Y Y Y n c 9._.        v.3.k G Y Y P c S d.*X                        ",
"            '.j.i.8.5.4.2.4.5.9.a.h.n.[.  j.1.c k p i p p c a 8.n.        /.t.a c p p p b f f.*X                        ",
"                [._.b.v.l.v.b.^./.        _.s.t.t.q.r.q.t.t.u.x.[.        oXz.u.w.q.w.q.q.i.b.-X                        ",
"                                            {.`.`.`.`.`.`.`.].              =X].`.`.'.`.`.{.                            ",
"                                                                                                                        ",
"                                                                                                                        ",
"                                                                                                                        "
};
