/* XPM */
static char *a391ce6694f44c82dd0880733cd3220dnhW5BFEoCsjtOyNV[] = {
/* columns rows colors chars-per-pixel */
"60 60 185 2 ",
"   c None",
".  c #000000",
"X  c gray5",
"o  c #141515",
"O  c #181818",
"+  c #27051C",
"@  c gray14",
"#  c #282928",
"$  c #3D3E3D",
"%  c #4A183A",
"&  c #45243A",
"*  c #4C2F43",
"=  c #424343",
"-  c #55434F",
";  c #515251",
":  c #5B5B5B",
">  c #685C64",
",  c #79566D",
"<  c #666767",
"1  c #6E706E",
"2  c #7C7E7D",
"3  c #717271",
"4  c #802764",
"5  c #8B557A",
"6  c #BA1987",
"7  c #BE1C8A",
"8  c #BF218C",
"9  c #BC2E8E",
"0  c #BE3993",
"q  c #C11E8C",
"w  c #C1228E",
"e  c #C52492",
"r  c #CA2695",
"t  c #C52B94",
"y  c #CB2997",
"u  c #CD2A99",
"i  c #D12E9D",
"p  c #CB319A",
"a  c #C53F9B",
"s  c #CF399F",
"d  c #C13995",
"f  c #D2319F",
"g  c #CE3EA0",
"h  c #D633A2",
"j  c #D936A5",
"k  c #D33BA2",
"l  c #DB39A7",
"z  c #DD3AA9",
"x  c #E13EAD",
"c  c #9C5F89",
"v  c #A6508A",
"b  c #BC599C",
"n  c #B0769D",
"m  c #C8449E",
"M  c #D341A5",
"N  c #DD42AB",
"B  c #D64AAA",
"V  c #DA4BAC",
"C  c #D745A9",
"Z  c #C655A2",
"A  c #CA50A2",
"S  c #C65BA3",
"D  c #D753AD",
"F  c #D858AF",
"G  c #DF4FB1",
"H  c #DE56B3",
"J  c #DB5AB2",
"K  c #E340AF",
"L  c #E543B1",
"P  c #E946B5",
"I  c #E54BB4",
"U  c #EA49B7",
"Y  c #ED4BB9",
"T  c #F14EBD",
"R  c #E453B6",
"E  c #EC52BB",
"W  c #E659B9",
"Q  c #EB5BBD",
"!  c #E258B6",
"~  c #F251BF",
"^  c #C86AAA",
"/  c #CA70AD",
"(  c #D760B1",
")  c #DB68B6",
"_  c #DE6CBA",
"`  c #D768B3",
"'  c #CF79B4",
"]  c #D871B7",
"[  c #E563BB",
"{  c #E863BE",
"}  c #E56ABE",
"|  c #E171BE",
" . c #EE5FC1",
".. c #F553C1",
"X. c #F956C5",
"o. c #F35BC3",
"O. c #FA5AC7",
"+. c #FF5CCB",
"@. c #EF63C2",
"#. c #E96EC2",
"$. c #F263C5",
"%. c #FE63CD",
"&. c #F46DC9",
"*. c #FE69CE",
"=. c #F567C8",
"-. c #ED76C7",
";. c #F574CC",
":. c #F974CF",
">. c #F67ACE",
",. c #FF6DD1",
"<. c #FE73D2",
"1. c #F67ED0",
"2. c #FF7BD5",
"3. c #828382",
"4. c #8A8789",
"5. c #BC9AB1",
"6. c #B7B8B8",
"7. c #CB89B6",
"8. c #D982BD",
"9. c #CD94BB",
"0. c #CB97BA",
"q. c #D093BC",
"w. c #DD8BC3",
"e. c #D39DC2",
"r. c #F282CE",
"t. c #E29BCB",
"y. c #FC83D5",
"u. c #F58AD4",
"i. c #FA8AD6",
"p. c #FF85D8",
"a. c #FE8CDA",
"s. c #F585D2",
"d. c #FE92DB",
"f. c #FF92DC",
"g. c #FF95DD",
"h. c #FF97DE",
"j. c #FE94DC",
"k. c #FF99DF",
"l. c #FE9DDF",
"z. c #FD9BDE",
"x. c #F692D6",
"c. c #D9A6C9",
"v. c #CFB3C6",
"b. c #D3B4C9",
"n. c #EBAFD7",
"m. c #FBA1DF",
"M. c #ECBFDE",
"N. c #FF9DE0",
"B. c #FF9EE0",
"V. c #FF9DE0",
"C. c #FFA1E1",
"Z. c #FFA3E1",
"A. c #FFA2E2",
"S. c #FFA4E2",
"D. c #FFA5E2",
"F. c #FFA7E3",
"G. c #FFA6E3",
"H. c #FFA3E2",
"J. c #FFA8E3",
"K. c #FFACE4",
"L. c #FFB2E7",
"P. c #FFB6E8",
"I. c #FFBAE9",
"U. c #F7B4E2",
"Y. c #C2C3C3",
"T. c #C6C8C7",
"R. c #D9C5D2",
"E. c #DACBD5",
"W. c #DFDFDF",
"Q. c LightGray",
"!. c #E0D3DC",
"~. c #EDCFE3",
"^. c #FFC4ED",
"/. c #F3CFE7",
"(. c #EDD6E6",
"). c #F3D6EA",
"_. c #F4DCEC",
"`. c #ECEEED",
"'. c #E7E5E6",
"]. c #EEF1EF",
"[. c #FBEFF7",
"{. c #F3F4F3",
"}. c #F7F9F7",
"|. c #FEFEFE",
" X c #F7FAF8",
/* pixels */
"                                                                                                                        ",
"                                                                                                                        ",
"                                                                                                                        ",
"                                                                  p k                                                   ",
"                                                                u &.f.C                                                 ",
"                                        8           w e y e w q Y <.j.>.e                                               ",
"                                      M -.H 8 y N Y ..O.$.O.Y K +.+.2.f.k                                               ",
"                                      W N.l.{ z <.2.2.2.2.2.<.*.+.+.%.p.W u h                                           ",
"                                    6 Y %.<.,.:.a.j.j.j.j.f.a.p.<.%.%.,.%.N ..z                                         ",
"                      e k k t     e r E %.%.<.N.C.D.D.D.D.D.C.C.j.a.p.p.2.2.,.%.Y i                                     ",
"                    B u.C.m.x.} p L E Q $.;.x.J.J.J.J.J.J.J.J.D.G.D.C.V.N.a.y.2.,.=.L e                           u B 8 ",
"                  D m.l.a.a.k.J.-.p V J ) ( D #.m.D.D.C.D.D.D.D.J.J.J.J.A.V.N.a.y.2.,.Y t   8 e                 g u.u.p ",
"                y >.&.Y Y ~ +.*.I [ z.K.I.^.U._ J i.d.d.f.f.k.N.C.D.G.G.J.J.D.C.N.a.y.=.z R >.1.M             k i.V.>.t ",
"                l Y s 0 9 u z T Y E Q @.;.i.C.I.| R <.2.2.2.2.p.p.i.i.A.D.J.J.J.A.A.N.1.W <.a.a.R           k i.V.p.$.8 ",
"                y D n > - 5 Z i s t t h N R $.y.m.B ..%.%.*.*.%.V V V H i.C.G.G.J.J.G.i.N U O.+.L         k u.l.p.<.U 6 ",
"                ] R.= 2 6.: 0.b , * % v m u l Y *. .T %.+.+.+.%.u.K.A.W H a.j.V.D.G.G.B.#.z x P h       k i.V.a.<.%.L   ",
"              ` [.3.. O @ % ' > ; T.1 3 E.7.m i Y +.+.+.+.+.X.%.a.a.a.1.l *.2.a.N.N.G.F.N.@.G G l t   p s.N.p.<.%.+.z   ",
"            a ). X= . . . , 5.o @ < ; 3.|.].R.Z f ..+.+.+.+...Y O.O.%.o.j O.%.<.2.f.N.G.G.G.d.a.;.o.l W f.2.,.%.+.+.l   ",
"            w.|. X; . . + ^ 4.. . . X 6.|.|.|.c.i X.+.+.+.+...z x ..U x I O.+.%.,.<.p.N.N.F.N.N.a.2.O.N %.,.%.+.+.+.j   ",
"            M.|.|.T.$ $ v n.2 . . . : }.|.|.|.e.L +.+.+.+.+.X.P l l l x ..+.+.+.+.%.<.2.N.N.N.N.a.2.%.O.O.+.+.+.+.+.j   ",
"          0 ~.|.|.|.{.{.w.).Y.# o : '.|.|.|.|._ T +.%.%.%.,.%.%.X.......+.+.+.+.+.+.%.,.2.f.N.N.p.2.%.+.+.+.+.+.+.+.l   ",
"            e.|.|.|.|. X8._.|.W.Q.}.|.|.|.|.).B %.<.2.a.N.V.D.V.f.2.*.%.+.+.+.+.+.+.+.%.,.2.2.p.2.<.%.%.+.+.+.+.+.+.l   ",
"            0 b.]. X}.!.S (.|.|.|.|.|.|.|.|.w.Q a.N.C.K.L.^.^.^.^.P.N.2.%.+.+.+.+.+.+.%.%.%.,.<.,.,.%.+.+.+.+.+.+.+.l   ",
"          r h k ^ q.9.Z 9 c. X|.|.|.|.|. Xc.H j.C.k.a.p.y.s.1.y.N.L.K.a.,.+.+.+.+.+.+.+.+.+.%.%.%.%.+.+.+.+.+.+.+.+.z   ",
"      w H O.%.R D H j h h Z R.'.{. X{.'.e.( N.N.p.<.%.%.E j i f N <.N.N.,.+.+.+.+.+.+.+.+.+.+.+.+.+.+.+.X.+.+.+.+.+.x   ",
"    8 [ k.2.I f ;.<...U L j A 9.v.b.0.^ ` l.j.2.%.%.+.+.P r q u r ..<.2.%.+.+.+.+.+.+.+.+.+.+.+.+.O...X...X.+.+.+.+.L   ",
"    N a.J.f.$.h z o.O.X.....@.[ ` ( ) r.N.y.,.+.O...Y x i r l ......+.%.+.+.%.+.+.+.+.+.Y ..+.+.X.Y x x P P ..X.+.+.L   ",
"  e Y r.K.J.a.*.I h z ..X.O.%.p.a.a.y.:.$...P x j i r r j Y +.+.+.+.+.+.+.+.+.+.+.+.+.<.$.h ....P x P Y h j x ..X.+.L   ",
"  h L $.j.L.J.a.<.O.U j h l x L N N l f u r u u j x P X.+.+.+.+.+.+.+.+.+.+.+.+.+.+.+.2.N.R h P l x ..u i x z x T X.L   ",
"  z z I ;.k.L.L.V.p.2.%.o...Y R E W R I W  .=.%.,.%.+.+.+.+.+.+.+.+.+.+.+.+.+.+.%.+.X.O.&.H e l z ..j   7 h x z L ..L   ",
"  j l z U &.d.K.L.L.G.N.a.a.a.a.N.N.A.A.A.N.p.p.2.,.+.+.+.+.+.+.+.+.+.+.+.+.+.+.+...x x l j r j Y z       6 h z j P z   ",
"  r L j z I o.;.d.A.K.K.K.K.J.J.A.z.a.i.1.1.>.>.<.,.+.+.+.+.+.+.+.+.+.+.+.+.+.+.+...h i r r i x L q         7 h z x j   ",
"    h L l l x Y ..=.:.y.y.y.y.1.*.$...Y R I P ....O.+.+.+.+.+.+.+.+.+.+.+.+.+.+.+.+.P x x z z P u             q z U i   ",
"    6 h P x l z x L Y Y E E Y I P x N I Y Y Y Y ..X.+.+.+.+.+.+.X.P ..+.+.+.+.+.+.+.X.X.P z P j                 e h q   ",
"        y L U x l j l z z z l j z x ..x h i i x X.+.+.+...x P ..P u x X.+.+.+.+.+.X.X.P z x x q                         ",
"          q i L U L x z z z x x x x u r i x Y X.+.+.+.+.X.u u j j r Y +.+.+.+.+.+.X...z z ..r                           ",
"              7 i h z L L L L z u r i z x ..+.+.+.X.+.+.+...h r u h X.+.+.+.+.X.....x i x h                             ",
"              6 j z u r r r r r i h j x X.+.+.+.X.+.+.+.+.+.X.....X.+.+.+.+.X...P x h r j 7                             ",
"                q x P j i h h j j z x Y +.+.+.X.+.+.+.+.+.+.+.+.X.+.+.+.+.....x l h r i r                               ",
"                  q x P j h h j x x P X.X.+.+.+.+.+.+.+.+.+.+.+.+.+.+.X.....h r r e f u                                 ",
"                    q z Y z h j j z L Y X.X.X.+.+.+.+.+.+.X.+.+.+.X...Y L z j j i z l                                   ",
"                        i Y L h f j l x P Y ..X.X.X.X.X.X.X.....T P x z l j f h x x w                                   ",
"                          r L P z j f h j l x P U Y U U U P x x z l j h h h z L j w                                     ",
"                            q h P L l j h u r l j i u l l j j j h h h j z x z u                                         ",
"                                e h L L x l r y r r i h h h j j l x x P z u 7                                           ",
"                                    7 y h l x j j x P x x I P P x x i e                                                 ",
"                                            7 e y u i i i u r e 7                                                       ",
"                                                                                                                        ",
"                                                                                                                        ",
"                                                                                                                        ",
"                                                                                                                        ",
"                                                                                                                        ",
"                                                                                                                        ",
"                                                                                                                        ",
"                                                                                                                        ",
"                                                                                                                        ",
"                                                                                                                        ",
"                                                                                                                        ",
"                                                                                                                        ",
"                                                                                                                        "
};
