/* XPM */
static char *_b6ecfabdc8b42a5cd93519ca53e64d0Ln9bv60J7OyxWZmK[] = {
/* columns rows colors chars-per-pixel */
"60 60 186 2 ",
"   c None",
".  c #020101",
"X  c #090407",
"o  c #0E0B0D",
"O  c #12060E",
"+  c #110B0F",
"@  c #1C0C18",
"#  c #1C131A",
"$  c #390E2C",
"%  c #2B1926",
"&  c #36162C",
"*  c #3B1730",
"=  c #282527",
"-  c #342630",
";  c #393939",
":  c #4B0836",
">  c #7F135C",
",  c #4E2441",
"<  c #4F2C44",
"1  c #523148",
"2  c #5B3C51",
"3  c #643E59",
"4  c #6B2856",
"5  c #7B2E63",
"6  c #444343",
"7  c #535454",
"8  c #575958",
"9  c #6B455F",
"0  c #6D5B67",
"q  c #77506C",
"w  c #6E6F6E",
"e  c #7A7A7A",
"r  c #727272",
"t  c #9F297A",
"y  c #BE1E8B",
"u  c #B91885",
"i  c #B33E8E",
"p  c #BF3292",
"a  c #C21F8E",
"s  c #C3228F",
"d  c #C52492",
"f  c #C92695",
"g  c #C42B93",
"h  c #CA2997",
"j  c #CE2C9A",
"k  c #D12E9D",
"l  c #CB349B",
"z  c #CB3C9D",
"x  c #D3319F",
"c  c #D533A1",
"v  c #D936A5",
"b  c #D43CA3",
"n  c #DB39A7",
"m  c #DD3BAA",
"M  c #E13EAD",
"N  c #AC4E8F",
"B  c #BB4795",
"V  c #B55A98",
"C  c #9C688C",
"Z  c #867E84",
"A  c #A46D93",
"S  c #B8689F",
"D  c #B1779F",
"F  c #BF75A8",
"G  c #C4459C",
"H  c #CB47A1",
"J  c #D442A6",
"K  c #DC42AB",
"L  c #D64DAA",
"P  c #DD4BAE",
"I  c #CA53A4",
"U  c #CE5BA9",
"Y  c #D25DAD",
"T  c #D954AF",
"R  c #DE4CB0",
"E  c #DD55B2",
"W  c #DE58B3",
"Q  c #E241AF",
"!  c #E543B1",
"~  c #E946B5",
"^  c #E44AB3",
"/  c #EA49B6",
"(  c #ED4BB9",
")  c #F14EBD",
"_  c #E352B5",
"`  c #E25AB7",
"'  c #E655B8",
"]  c #ED55BC",
"[  c #E55BB9",
"{  c #EA5CBD",
"}  c #F251BE",
"|  c #C769A9",
" . c #D063AD",
".. c #CC74AF",
"X. c #DE69B9",
"o. c #DF60B8",
"O. c #CD73B1",
"+. c #D974B8",
"@. c #E563BC",
"#. c #E963BE",
"$. c #E56ABD",
"%. c #E270BE",
"&. c #EF5FC1",
"*. c #F553C2",
"=. c #F956C5",
"-. c #F45BC3",
";. c #FA58C7",
":. c #FF5CCB",
">. c #ED63C1",
",. c #E76DC0",
"<. c #EB6CC2",
"1. c #F362C5",
"2. c #F16CC7",
"3. c #FE63CD",
"4. c #F56DCA",
"5. c #FC6ACE",
"6. c #F664C8",
"7. c #ED71C6",
"8. c #EE7BCA",
"9. c #EA75C5",
"0. c #F373CA",
"q. c #F874CE",
"w. c #F579CD",
"e. c #FF6DD1",
"r. c #FF67D0",
"t. c #FE74D2",
"y. c #FE7CD4",
"u. c #FF7FD9",
"i. c #9B9B9B",
"p. c #BF8FAF",
"a. c #B295A9",
"s. c gray63",
"d. c #BAA4B3",
"f. c #B4B7B5",
"g. c #CA84B3",
"h. c #CE89B9",
"j. c #D18DBB",
"k. c #D084B8",
"l. c #C696B7",
"z. c #DC8BC3",
"x. c #DE85C1",
"c. c #D39EC2",
"v. c #ED86CD",
"b. c #F186CF",
"n. c #E29ACB",
"m. c #FE82D6",
"M. c #F48BD3",
"N. c #F88DD6",
"B. c #FF86D8",
"V. c #FF8EDB",
"C. c #FF8BDA",
"Z. c #F784D2",
"A. c #F792D7",
"S. c #F19CD6",
"D. c #FE94DC",
"F. c #FE9BDE",
"G. c #F798D9",
"H. c #D0A4C2",
"J. c #D6BDCE",
"K. c #FCA0DF",
"L. c #FF9FE0",
"P. c #FF9DE0",
"I. c #FFA1E1",
"U. c #FFA2E1",
"Y. c #FFA6E2",
"T. c #FFA4E2",
"R. c #FFA4E2",
"E. c #FFAAE4",
"W. c #FFADE6",
"Q. c #FEAAE3",
"!. c #FFAFE8",
"~. c #FFB0E6",
"^. c #DECBD8",
"/. c #CFD3D1",
"(. c #DBD9DA",
"). c #EFCAE3",
"_. c #F4D9EB",
"`. c #E4E4E4",
"'. c #EAEBEA",
"]. c #F0E2EC",
"[. c #EDF0EE",
"{. c #F6EFF4",
"}. c #F6F5F5",
"|. c #FCF4F9",
" X c #FEFFFF",
".X c #F6F9F7",
/* pixels */
"                                                                                                                        ",
"                                                                c                                                       ",
"                                                                ,.b                                                     ",
"                              J                               E y.n                                                     ",
"                              <.T                             7.y.m                                                     ",
"                              [ w.J                         J Z.r.m                                                     ",
"                              ^ 0.7.                        [ B.3.m                                                     ",
"                              m { m.#.                      4.m.:.M               y                                     ",
"                              n ! 4.m.R                   J m.t.:.M             L                                       ",
"                              x M ' m.w.b                 { C.r.:.^           E <.                                      ",
"                                M M 3.C.>.d h x m m m m c 4.m.:.:.~         z Z.'                                       ",
"                                M n ) y.m.^ / 5.5.t.t.3./ m.y.:.:./ m       7.m.m             m v                       ",
"                  .             x n M :.B.y.{ Z.C.C.V.0.1.m.5.:.3.( 6.-.K K q.5.x         b ,.] x                       ",
"                  .           x m m n *.r.B.D.F.I.I.I.D.B.y.3.:.r.4.y.Z.t.6./ ! n       J 0.w./                         ",
"                    .       x ;.] K ! =.3.C.I.Q.W.E.E.E.I.V.m.m.V.F.D.D.V.y.{ [ ^     K w.m.' m                         ",
"                    X     j -.t.y.w.y.m.D.F.Q.W.W.!.!.E.E.Y.I.I.I.T.T.L.D.$.0.w.^ c K q.C.-.M         g z               ",
"                  p $ $ g ^ 5.y.D.T.I.A.v.Y.!.Q.c.F C S.Y.Y.Y.Y.T.T.E.G.@.w.B.{ _ >.t.C.4.M v       l 8.G.J             ",
"                  / 5 X i ( 5.y.N.v.X.$.9.z.A 2 # o 3 S.L.L.L.L.I.T.A.@.q.C.-.! 7.C.m.5.~ m j     h w.!.L._             ",
"                  ! t . 4 G o.4.@.$.M.h.q % . X < S N.V.V.V.D.P.D.M.[ 5.B.e.~ R M.D.t.-.K K       <.E.I.u.~             ",
"                  I V @ O @ , $.v.F 9 @ . X , V w.m.u.u.y.y.y.u.0.[ 5.B.y.*.m W G.I.N.<.[ J     W Y.T.u.3.M             ",
"                +.].`.6 . . . % & o . . * N 4.e.e.r.r.r.r.r.e.e.1.5.y.m.5.! m ` F.Q.K.v.$.J   W K.Q.m.3.:.v             ",
"              I _. X Xr . . . . . . ; Z | -.3.3.3.:.3.3.3.3.3.3.r.r.y.r.*.m m $.I.T.T.G.8.0.R N.I.m.3.:.;.k             ",
"              n. X X(.w = O . o 6 s.'.}.(...! :.:.:.:.:.3.:.:.:.:.:.3.:.] v K 7.L.I.T.I.F.C.4.<.y.3.:.:.=.f             ",
"            G _. X Xe 8 1 2 e e .X X X X Xz.! :.:.:.:.:.:.:.:.:.:.:.:.:.*.n / q.C.D.I.I.T.F.B._ 3.:.:.:.) s             ",
"             .|. X.X8 . : - 7 i. X X X X|.X.=.:.:.:.:.:.:.:.:.:.:.:.:.:.:.*.3.e.y.B.D.L.I.F.C.5.3.:.:.:.(               ",
"    k x     U {. X Xf.9 t . = (. X X X X).^ :.*.~ M m ! *.:.:.:.:.:.:.:.:.:.:.:.3.t.B.D.I.L.F.m.e.3.:.:./               ",
"    v } =.=.Q H.`.'.^.Y u 0 f. X X X X}.+.( m R >.0.0.>.K M :.:.:.:.:.:.:.:.:.:.3.r.y.C.F.F.P.C.t.r.:.:.~               ",
"      j ~ *.Q l | O.Y &.` g.`..X X X[.j.j R b.I.T.T.I.T.D.` m :.:.:.:.:.:.:.:.:.:.3.r.m.C.F.D.C.t.3.3.:.!               ",
"        d m ] K <.w.y.e.r.,.O.H.J.J...z ` D.P.B.t.e.t.t.B.m.^ ( :.:.:.:.:.:.:.:.:.:.3.t.y.C.C.m.t.3.:.:.m               ",
"      d { y.5.v -.r.3.:.:.t.w.,.X.X.,.M.P.C.6.( ~ ~ ~ *.:.3.3.:.:.:.:.:.:.:.:.:.:.:.:.3.t.y.y.t.-.;.:.:.m               ",
"      / y.T.B.} m *.:.:.:.:.r.e.t.y.Z.y.4./ v j j j j x ! =.:.:.:.:.:.:.:.:.:.:.:.:.:.:.3.r.5.-.m ( :.:.n               ",
"    k *.y.W.T.y.;.M m ~ ( ( ( ~ M M M m k z V h.l.p.g.B c ( :.:.:.:.:.:.:.:.:.:.:.r.1.( :.:.*.! j ! :.:.c               ",
"    v ( 3.D.W.T.C.y.4.&.' _ ' { &.1.&.! l O.d.'.`./.[.a.z ( :.:.:.:.:.:.:.:.:.:.:.:.t.2.^ *.M n f M =.:.k               ",
"    v ~ ( 5.N.L.L.L.P.P.P.P.P.P.P.C.C.C.q.&.L +.j.g.z.H ! =.:.:.:.:.:.:.:.:.:.:./ ~ *.5.0.R n c f M :.:.v               ",
"    h ! M ( -.5.t.y.y.Z.u.Z.y.y.t.e.r.t.u.y.t.6.&.( *.*.:.:.:.:.:.:.:.:.:.:.:.=.M M M M &.4.R x f M =.:.v               ",
"      v ! Q ! ~ ( } *.;.=.;.*.*.( ( ( *.:.5.e.t.e.r.:.:.:.:.:.:.:.:.:.:.:.:.:.*.~ M M M m ^ 1.M j v ~ =.v               ",
"        x ! / ~ ~ M M M ! ! M M M M M *.;.;.:.:.3.:.:.:.:.:.:.:.:.:.:.:.:.:.:.:.:.:.=.) m x m ~ v k v ! x               ",
"            k M ~ ( ) ~ ~ ! ! ! ~ M n ~ =.:.:.:.:.:.:.:.:.:.:.:.:.:.:.:.:.:.:.:.:.:.:.*.M c k d h f M M f               ",
"              m k k x x x c k x c c M *.:.:.:.:.:.:.:.:.:.:.:.:.:.:.:.:.:.:.:.:.:.:.=.~ n c k       f h                 ",
"              Q M x x x x c v m M *.=.:.:.:.:.:.:.:.:.:.:.:.:.:.:.=.:.:.:.:.:.:.:.:.*.M c c h                           ",
"              v M k v v v M ( *.=.:.:.:.:.:.:.:.:.:.:.:.:.*.*.5.3.~ =.:.:.:.:.:.:.*.! v c k K W                         ",
"              c M v M M ( *.=.=.:.:.:.:.:.:.:.:.:.:.:.:.:.( m -.t.( *.:.:.:.:.:.3.~ v c c f c &.b                       ",
"                M k M *.=.:.:.:.:.:.:.:.:.:.:.:.:.:.:.:.:.( M m q.;.) :.:.:.:.*.5.>.c c k y   j b y                     ",
"                d k M ) =.:.:.:.:.:.:.:.:.:.:.:.:.:.:.:.:.~ ~ n [ 4.M :.:.:.=.( ^ 4.^ c f         u                     ",
"                h c n ~ *.=.;.:.:.:.:.:.:.:.:.:.:.:.:.:.:.=.M ~ P 0./ =.=.*.~ ) ! ^ q.b                                 ",
"              j n n M n v ( *.=.;.;.:.:.:.:.:.:.:.:.:.:.:.:.=.M ~ >.] ~ ( M v x Q / &.<.                                ",
"            f M n k f v M M M *.*.( *.;.*.=.=.=.=.:.:.:.:.:.*.M M &.6.m n v c c m v / 5.{                               ",
"            d j         M M M m m m R 2.~ M ( ) M *.*.*.) ( M M c ' w.m x c m ~ m     K 1.K                             ",
"                          x ! ~ M c R <.J v / M v m M M n v v x c c 4.R n ~ M c           M                             ",
"                              k M ! ^ ,.b n ) k c c c c x c c v n m ! / n x                 d                           ",
"                                  a P ,.v ! M M ! ! ! ~ ~ ~ / ! M m h v                                                 ",
"                                    W ,.n ( f f j k c x k j v ^ [                                                       ",
"                                    _ ,.M m                 v ] 0.                                                      ",
"                                    W $.M                     ^ <.                                                      ",
"                                    W { v                     x [                                                       ",
"                                    ^ ^                         c                                                       ",
"                                    Q n                         y                                                       ",
"                                    x                                                                                   ",
"                                                                                                                        ",
"                                                                                                                        "
};
